<?xml version="1.0" encoding="UTF-8"?>
<svg id="Layer_1" data-name="Layer 1" xmlns="http://www.w3.org/2000/svg" viewBox="0 0 256 256">
  <defs>
    <style>
      .cls-1 {
        fill: none;
        stroke: #231f20;
        stroke-miterlimit: 10;
        stroke-width: 5px;
      }
    </style>
  </defs>
  <rect class="cls-1" x="33.46" y="33.46" width="189.09" height="189.09" rx="33.42" ry="33.42"/>
  <path class="cls-1" d="M92.42,163.58c-31.72-31.72-39.36-75.5-17.07-97.79l1.23-1.23c3.45-3.45,9.61-2.11,12.61,1.72l11.79,16.23s2.77,4.73-2.29,9.88c0,0-17.1,17.16-7.25,35.03h0c10.73,13.92,23.21,26.4,37.13,37.13h0c17.87,9.85,35.03-7.25,35.03-7.25,5.15-5.06,9.88-2.29,9.88-2.29l16.23,11.79c3.83,3,5.16,9.17,1.72,12.61l-1.23,1.23c-22.29,22.29-66.07,14.65-97.79-17.07"/>
</svg>